# xmcd
#
# Track frame offsets:
#	150
#	92495
#	114539
#
# Disc length: 1729 seconds
#
# Revision: 1
# Processed by: cddbd v1.5.1PL0 Copyright (c) Steve Scherf et al.
# Submitted via: CDex 1.50Beta5
#
DISCID=1a06bf03
DTITLE=I've - 吐溜
DYEAR=1900
DGENRE=Unclassifiable
TTITLE0=data track
TTITLE1=美しく生きたい
TTITLE2=FUCK ME
EXTD=
EXTT0=
EXTT1=
EXTT2=
PLAYORDER=
